<?xml version="1.0" encoding="UTF-8" standalone="no"?>
<!-- Created with Inkscape (http://www.inkscape.org/) -->

<svg
   width="128mm"
   height="128mm"
   viewBox="0 0 128 128"
   version="1.1"
   id="svg5"
   inkscape:version="1.1.2 (0a00cf5339, 2022-02-04)"
   sodipodi:docname="indra.svg"
   inkscape:export-filename="/home/loki/src/github.com/indra-labs/indra/doc/indra.png"
   inkscape:export-xdpi="96"
   inkscape:export-ydpi="96"
   xmlns:inkscape="http://www.inkscape.org/namespaces/inkscape"
   xmlns:sodipodi="http://sodipodi.sourceforge.net/DTD/sodipodi-0.dtd"
   xmlns="http://www.w3.org/2000/svg"
   xmlns:svg="http://www.w3.org/2000/svg">
  <sodipodi:namedview
     id="namedview7"
     pagecolor="#ffffff"
     bordercolor="#000000"
     borderopacity="0.25"
     inkscape:pageshadow="2"
     inkscape:pageopacity="0.0"
     inkscape:pagecheckerboard="0"
     inkscape:document-units="mm"
     showgrid="false"
     fit-margin-top="0"
     fit-margin-left="0"
     fit-margin-right="0"
     fit-margin-bottom="0"
     inkscape:zoom="1.0570195"
     inkscape:cx="-222.32324"
     inkscape:cy="467.82487"
     inkscape:window-width="2560"
     inkscape:window-height="1414"
     inkscape:window-x="0"
     inkscape:window-y="0"
     inkscape:window-maximized="1"
     inkscape:current-layer="layer1" />
  <defs
     id="defs2" />
  <g
     inkscape:label="Layer 1"
     inkscape:groupmode="layer"
     id="layer1"
     transform="translate(-84.777731,-165.39356)">
    <g
       id="g93789">
      <path
         id="path85513"
         style="fill:#a9c0dd;stroke:#000000;stroke-width:2.365;stroke-linecap:round;stroke-linejoin:round;stroke-miterlimit:4;stroke-dasharray:none;stroke-opacity:1;fill-opacity:1"
         d="m 130.39229,185.23683 v 4.7842 h 5.45652 v 18.65519 c -12.58903,5.22359 -20.79796,17.50946 -20.80597,31.13919 -1e-5,18.63127 15.10362,33.7349 33.73489,33.73488 18.63127,2e-5 33.7349,-15.10361 33.73489,-33.73488 -0.001,-13.63593 -8.21121,-25.93026 -20.80596,-31.15624 v -18.63814 h 5.456 v -4.7842 z"
         sodipodi:nodetypes="cccccscccccc" />
      <path
         id="path93381"
         style="fill:#ffffff;fill-opacity:0.37463033;stroke:none;stroke-width:2.365;stroke-linecap:round;stroke-linejoin:round;stroke-miterlimit:4;stroke-dasharray:none;stroke-opacity:1"
         d="m 159.58948,185.23683 v 4.7842 h -5.456 v 18.63814 c 12.59475,5.22598 20.80496,17.52031 20.80596,31.15624 1e-5,17.35091 -13.09956,31.64021 -29.94804,33.5225 1.24328,0.13889 2.50598,0.21239 3.78633,0.21239 18.63127,2e-5 33.73491,-15.10362 33.7349,-33.73489 -0.001,-13.63593 -8.21122,-25.93026 -20.80597,-31.15624 v -18.63814 h 5.456 v -4.7842 z" />
    </g>
    <g
       id="g85428"
       transform="matrix(0.26458333,0,0,0.26458333,123.22923,239.52243)">
      <g
         id="color">
        <path
           fill="#92d3f5"
           stroke="none"
           d="m 56.0001,46.7065 c 0,11.7749 -8.9543,21.2965 -20,21.2965 -11.0457,0 -20,-9.5455 -20,-21.3204 0,0 -0.2191,-14.3086 16.6559,-40.1878 0,0 3.1666,-5.3703 6.3541,-0.3523 16.875,25.8791 16.99,40.564 16.99,40.564"
           id="path85404" />
        <path
           fill="#61b2e4"
           stroke="none"
           d="m 36,3.9991 c 12.875,10.3759 19.875,40.8753 19.875,40.8753 0,15.0006 -8.8293,23.1265 -19.875,23.1265 0,0 22,-18.1265 0,-64.0018"
           id="path85406" />
      </g>
      <g
         id="hair" />
      <g
         id="skin" />
      <g
         id="skin-shadow" />
      <g
         id="line">
        <path
           fill="none"
           stroke="#000000"
           stroke-linecap="round"
           stroke-linejoin="round"
           stroke-miterlimit="10"
           stroke-width="2"
           d="m 56.0001,46.7065 c 0,11.7749 -8.9543,21.2965 -20,21.2965 -11.0457,0 -20,-9.5455 -20,-21.3204 0,0 -0.2191,-14.3086 16.6559,-40.1878 0,0 3.1666,-5.3703 6.3541,-0.3523 16.875,25.8791 16.99,40.564 16.99,40.564"
           id="path85412" />
      </g>
    </g>
    <g
       id="g85466"
       transform="matrix(0.26458333,0,0,0.26458333,157.02518,240.38649)">
      <g
         id="color-9">
        <path
           fill="#d0cfce"
           stroke-width="1.175"
           d="m 22.08,21.58 c 0,0 8.815,-1.028 13.74,-5.069 0,0 11.09,6.391 13.88,5.289 0,0 2.792,13.74 5.73,13.96 0,0 -5.436,13 -4.775,13.66 0,0 -13.44,2.424 -14.62,6.244 0,0 -8.228,-7.934 -14.1,-5.583 0,0 -3.232,-13.08 -5.73,-13.59 0,0 7.199,-12.86 5.877,-14.91 z"
           id="path85430" />
      </g>
      <g
         id="hair-0" />
      <g
         id="skin-6" />
      <g
         id="skin-shadow-8" />
      <g
         id="line-7">
        <line
           x1="8.1120005"
           x2="63.889999"
           y1="36"
           y2="36"
           fill="none"
           stroke="#000000"
           stroke-linecap="round"
           stroke-linejoin="round"
           stroke-miterlimit="10"
           stroke-width="2"
           id="line85436" />
        <line
           x1="36"
           x2="36"
           y1="8.1120005"
           y2="63.889999"
           fill="none"
           stroke="#000000"
           stroke-linecap="round"
           stroke-linejoin="round"
           stroke-miterlimit="10"
           stroke-width="2"
           id="line85438" />
        <line
           x1="55.720001"
           x2="16.280001"
           y1="16.280001"
           y2="55.720001"
           fill="none"
           stroke="#000000"
           stroke-linecap="round"
           stroke-linejoin="round"
           stroke-miterlimit="10"
           stroke-width="2"
           id="line85440" />
        <line
           x1="55.720001"
           x2="16.280001"
           y1="55.720001"
           y2="16.280001"
           fill="none"
           stroke="#000000"
           stroke-linecap="round"
           stroke-linejoin="round"
           stroke-miterlimit="10"
           stroke-width="2"
           id="line85442" />
        <path
           fill="none"
           stroke="#000000"
           stroke-linecap="round"
           stroke-linejoin="round"
           stroke-miterlimit="10"
           stroke-width="2"
           d="m 36.14,55.88 c 0,0 -6.289,-6.553 -14.69,-5.373 0,0 0.1913,-9.123 -5.838,-14.25 0,0 6.442,-6.65 5.997,-14.67 0,0 9.38,-0.112 14.32,-6.1 0,0 6.289,6.553 14.31,6.108 0,0 0.112,9.38 6.214,14.68 0,0 -6.44,6.649 -5.995,14.09 0,0 -9.38,-0.469 -14.32,5.519 z"
           id="path85444" />
        <path
           fill="none"
           stroke="#000000"
           stroke-linecap="round"
           stroke-linejoin="round"
           stroke-miterlimit="10"
           stroke-width="2"
           d="m 49.25,35.48 c 0,0 -3.624,4.594 -3.49,9.856 0,0 -6.702,0.5071 -10.04,3.803 0,0 -3.846,-3.97 -9.214,-3.803 0,0 -0.9087,-6.074 -4.256,-9.612 0,0 4.338,-4.547 4.091,-9.856 0,0 6.501,-0.1241 10.12,-4.052 0,0 3.352,4.093 9.297,4.052 0,0 0.1421,6.365 3.49,9.612 z"
           id="path85446" />
      </g>
    </g>
    <g
       id="g85489"
       transform="matrix(0.26458333,0,0,0.26458333,139.25277,208.56362)">
      <g
         id="color-90">
        <path
           fill="#fcea2b"
           stroke="none"
           d="M 48.143,3.7261 16.316,37.8507 c -0.6029,0.6465 -0.1141,1.6589 0.801,1.6589 H 36.2236 L 19.1503,67.0482 c -0.1662,0.2681 0.215,0.5364 0.4424,0.3114 l 36.0628,-35.704 c 0.6436,-0.6372 0.1626,-1.6882 -0.7725,-1.6882 H 36.3826 Z"
           id="path85468" />
      </g>
      <g
         id="hair-3" />
      <g
         id="skin-3" />
      <g
         id="skin-shadow-3" />
      <g
         id="line-73">
        <path
           fill="none"
           stroke="#000000"
           stroke-linecap="round"
           stroke-linejoin="round"
           stroke-miterlimit="10"
           stroke-width="2"
           d="M 48.1628,4.4406 16.3224,37.7817 c -0.6174,0.6465 -0.1168,1.6589 0.8201,1.6589 H 36.2254 L 17.9214,68.2739 55.6483,31.7954 c 0.659,-0.6372 0.1665,-1.6882 -0.791,-1.6882 H 36.3846 Z"
           id="path85474" />
      </g>
    </g>
    <path
       id="rect86282"
       style="fill:#000000;fill-opacity:1;stroke:none;stroke-width:1.49631;stroke-linecap:round;stroke-linejoin:round;stroke-miterlimit:4;stroke-dasharray:none;stroke-opacity:1"
       d="m 132.89958,229.39734 c -0.43136,0.74697 -0.86272,1.49395 -1.29407,2.24092 5.26249,3.03836 10.52499,6.07671 15.78749,9.11507 0,6.0765 0,12.15299 0,18.22949 0.8625,0 1.725,0 2.58749,0 0,-6.0765 0,-12.15299 0,-18.22949 5.2625,-3.03836 10.52499,-6.07671 15.78749,-9.11507 -0.43136,-0.74697 -0.86271,-1.49395 -1.29408,-2.24092 -5.26238,3.03825 -10.52477,6.0765 -15.78716,9.11474 -5.26238,-3.03824 -10.52477,-6.07649 -15.78716,-9.11474 z"
       inkscape:transform-center-x="-0.15672589"
       inkscape:transform-center-y="4.1330013" />
  </g>
</svg>
